<?xml version="1.0" encoding="ISO-8859-1" standalone="no"?>
<!DOCTYPE svg PUBLIC "-//W3C//DTD SVG 1.1//EN" "http://www.w3.org/Graphics/SVG/1.1/DTD/svg11.dtd">
<svg version="1.1" baseProfile="full" id="body" width="8in" height="8in" viewBox="0 0 1 1" preserveAspectRatio="none" xmlns="http://www.w3.org/2000/svg" xmlns:xlink="http://www.w3.org/1999/xlink" xmlns:ev="http://www.w3.org/2001/xml-events">
<title>SVG drawing</title>
<desc>This was produced by version 4.4 of GNU libplot, a free library for exporting 2-D vector graphics.</desc>
<rect id="background" x="0" y="0" width="1" height="1" stroke="none" fill="white"/>
<g id="content" transform="translate(0.071875,1.1813) scale(0.125,-0.125) " xml:space="preserve" stroke="black" stroke-linecap="butt" stroke-linejoin="miter" stroke-miterlimit="10.433" stroke-dasharray="none" stroke-dashoffset="0" stroke-opacity="1" fill="none" fill-rule="evenodd" fill-opacity="1" font-style="normal" font-variant="normal" font-weight="normal" font-stretch="normal" font-size-adjust="none" letter-spacing="normal" word-spacing="normal" text-anchor="start">
<polygon points="0.05,5 0.05,7.4 4.75,7.4 4.75,5 " stroke-width="0.0094118" stroke-dasharray="0.05, 0.05" />
<rect x="0.925" y="7.55" width="2.15" height="0.3" stroke-width="0.0094118" />
<text transform="translate(1.0546,7.651) scale(1,-1) scale(0.0069444) " font-family="Helvetica,sans-serif" font-size="20px" stroke="none" fill="black" >outerDeferred.callback(&apos;result&apos;)</text>
<circle cx="2" cy="7.95" r="0.1" stroke-width="0.0094118" />
<text transform="translate(1.9499,7.901) scale(1,-1) scale(0.0069444) " font-family="Helvetica-Bold,Helvetica,sans-serif" font-weight="bold" font-size="20px" stroke="none" fill="black" >A</text>
<rect x="1.3" y="6.725" width="2.25" height="0.5" stroke-width="0.0094118" />
<text transform="translate(1.435,6.926) scale(1,-1) scale(0.0069444) " font-family="Helvetica,sans-serif" font-size="20px" stroke="none" fill="black" >printAndPassThrough, args=(1,)</text>
<rect x="1.3" y="6.225" width="2.25" height="0.5" stroke-width="0.0094118" />
<text transform="translate(1.4968,6.426) scale(1,-1) scale(0.0069444) " font-family="Helvetica,sans-serif" font-size="20px" stroke="none" fill="black" >returnInnerDeferred, args=(2,)</text>
<rect x="1.3" y="5.725" width="2.25" height="0.5" stroke-width="0.0094118" />
<text transform="translate(1.435,5.926) scale(1,-1) scale(0.0069444) " font-family="Helvetica,sans-serif" font-size="20px" stroke="none" fill="black" >printAndPassThrough, args=(3,)</text>
<rect x="1.3" y="5.225" width="2.25" height="0.5" stroke-width="0.0094118" />
<text transform="translate(1.435,5.426) scale(1,-1) scale(0.0069444) " font-family="Helvetica,sans-serif" font-size="20px" stroke="none" fill="black" >printAndPassThrough, args=(4,)</text>
<path d="M3.55,7.125 H3.55 Q3.9,7.125,3.9,6.95 Q3.9,6.775,3.9,6.8 Q3.9,6.825,3.9,6.65 Q3.9,6.475,3.55,6.475 " stroke-width="0.0094118" />
<polygon points="3.6437,6.4437 3.55,6.475 3.6437,6.5062 " stroke-width="0.0094118" fill="black" />
<line x1="3.55" y1="7.025" x2="3.55" y2="7.025" stroke-width="0.0094118" />
<path d="M3.55,7.025 L3.5578,7.025 L3.5654,7.0249 L3.5729,7.0247 L3.5803,7.0245 L3.5875,7.0242 L3.5947,7.0239 L3.6017,7.0235 L3.6086,7.023 L3.6154,7.0225 L3.622,7.0219 L3.6286,7.0213 L3.635,7.0206 L3.6412,7.0198 L3.6474,7.019 L3.6535,7.0181 L3.6594,7.0172 L3.6652,7.0162 L3.6708,7.0151 L3.6764,7.014 L3.6818,7.0128 L3.6871,7.0115 L3.6923,7.0102 L3.6974,7.0089 L3.7023,7.0074 L3.7072,7.0059 L3.7119,7.0044 L3.7164,7.0028 L3.7209,7.0011 L3.7252,6.9993 L3.7294,6.9975 L3.7335,6.9957 L3.7375,6.9937 L3.7413,6.9918 L3.7451,6.9897 L3.7487,6.9876 L3.7521,6.9854 L3.7555,6.9832 L3.7587,6.9809 L3.7619,6.9786 L3.7648,6.9762 L3.7677,6.9737 L3.7705,6.9712 L3.7731,6.9686 L3.7756,6.9659 L3.778,6.9632 L3.7802,6.9604 L3.7824,6.9576 L3.7844,6.9547 L3.7863,6.9517 L3.788,6.9487 L3.7897,6.9456 L3.7912,6.9425 L3.7926,6.9393 L3.7939,6.936 L3.7951,6.9327 L3.7961,6.9293 L3.797,6.9258 L3.7978,6.9223 L3.7985,6.9188 L3.799,6.9151 L3.7995,6.9114 L3.7998,6.9077 L3.7999,6.9039 L3.8,6.9 Q3.8,6.775,3.8,6.8 Q3.8,6.825,3.8,6.7 Q3.8,6.575,3.55,6.575 " stroke-width="0.0094118" stroke-dasharray="0.025, 0.025" />
<polygon points="3.6437,6.5437 3.55,6.575 3.6437,6.6062 " stroke-width="0.0094118" fill="black" />
<text transform="translate(3.9494,6.776) scale(1,-1) scale(0.0069444) " font-family="Helvetica,sans-serif" font-size="20px" stroke="none" fill="black" >&apos;result&apos;</text>
<path d="M3.55,5.925 H3.55 Q3.9,5.925,3.9,5.75 Q3.9,5.575,3.9,5.625 Q3.9,5.675,3.9,5.5 Q3.9,5.325,3.55,5.325 " stroke-width="0.0094118" />
<polygon points="3.6437,5.2937 3.55,5.325 3.6437,5.3562 " stroke-width="0.0094118" fill="black" />
<line x1="3.55" y1="5.825" x2="3.55" y2="5.825" stroke-width="0.0094118" />
<path d="M3.55,5.825 L3.5578,5.825 L3.5654,5.8249 L3.5729,5.8247 L3.5803,5.8245 L3.5875,5.8242 L3.5947,5.8239 L3.6017,5.8235 L3.6086,5.823 L3.6154,5.8225 L3.622,5.8219 L3.6286,5.8213 L3.635,5.8206 L3.6412,5.8198 L3.6474,5.819 L3.6535,5.8181 L3.6594,5.8172 L3.6652,5.8162 L3.6708,5.8151 L3.6764,5.814 L3.6818,5.8128 L3.6871,5.8115 L3.6923,5.8102 L3.6974,5.8089 L3.7023,5.8074 L3.7072,5.8059 L3.7119,5.8044 L3.7164,5.8028 L3.7209,5.8011 L3.7252,5.7993 L3.7294,5.7975 L3.7335,5.7957 L3.7375,5.7937 L3.7413,5.7918 L3.7451,5.7897 L3.7487,5.7876 L3.7521,5.7854 L3.7555,5.7832 L3.7587,5.7809 L3.7619,5.7786 L3.7648,5.7762 L3.7677,5.7737 L3.7705,5.7712 L3.7731,5.7686 L3.7756,5.7659 L3.778,5.7632 L3.7802,5.7604 L3.7824,5.7576 L3.7844,5.7547 L3.7863,5.7517 L3.788,5.7487 L3.7897,5.7456 L3.7912,5.7425 L3.7926,5.7393 L3.7939,5.736 L3.7951,5.7327 L3.7961,5.7293 L3.797,5.7258 L3.7978,5.7223 L3.7985,5.7188 L3.799,5.7151 L3.7995,5.7114 L3.7998,5.7077 L3.7999,5.7039 L3.8,5.7 Q3.8,5.575,3.8,5.625 Q3.8,5.675,3.8,5.55 Q3.8,5.425,3.55,5.425 " stroke-width="0.0094118" stroke-dasharray="0.025, 0.025" />
<polygon points="3.6437,5.3937 3.55,5.425 3.6437,5.4562 " stroke-width="0.0094118" fill="black" />
<text transform="translate(3.9257,5.606) scale(1,-1) scale(0.0069444) " font-family="Helvetica,sans-serif" font-size="20px" stroke="none" fill="black" >&apos;inner result&apos;</text>
<line x1="3.075" y1="7.7" x2="3.075" y2="7.7" stroke-width="0.0094118" />
<path d="M3.075,7.7 Q4.075,7.7,2.8,7.225 " stroke-width="0.0094118" stroke-dasharray="0.025, 0.025" />
<polygon points="2.8988,7.2284 2.8,7.225 2.8769,7.287 " stroke-width="0.0094118" fill="black" />
<path d="M3.075,7.8 H3.075 Q4.075,7.8,3.1,7.225 " stroke-width="0.0094118" />
<polygon points="3.1966,7.2457 3.1,7.225 3.1649,7.2995 " stroke-width="0.0094118" fill="black" />
<path d="M1.2062,7.225 L1.2032,7.2249 L1.2001,7.2247 L1.1971,7.2243 L1.1941,7.2238 L1.1911,7.2231 L1.1881,7.2223 L1.1852,7.2213 L1.1823,7.2202 L1.1795,7.219 L1.1768,7.2176 L1.1741,7.2161 L1.1715,7.2145 L1.169,7.2127 L1.1666,7.2108 L1.1643,7.2088 L1.1621,7.2067 L1.1599,7.2045 L1.1579,7.2021 L1.156,7.1997 L1.1543,7.1972 L1.1526,7.1946 L1.1511,7.192 L1.1498,7.1892 L1.1485,7.1864 L1.1474,7.1836 L1.1464,7.1806 L1.1456,7.1777 L1.145,7.1747 L1.1444,7.1717 L1.1441,7.1686 L1.1438,7.1656 L1.1437,7.1625 V6.2562 L1.1125,6.225 L1.1437,6.1937 V5.2875 C1.1437,5.253,1.1717,5.225,1.2062,5.225 " stroke-width="0.0094118" />
<text transform="translate(0.13396,6.176) scale(1,-1) scale(0.0069444) " font-family="Helvetica,sans-serif" font-size="20px" stroke="none" fill="black" >outerDeferred&apos;s</text>
<text transform="translate(0.32694,6.026) scale(1,-1) scale(0.0069444) " font-family="Helvetica,sans-serif" font-size="20px" stroke="none" fill="black" >callbacks</text>
<polygon points="1.8,2.85 1.8,4.25 6.8,4.25 6.8,2.85 " stroke-width="0.0094118" stroke-dasharray="0.05, 0.05" />
<rect x="1.79" y="4.4" width="2.5" height="0.3" stroke-width="0.0094118" />
<text transform="translate(1.9248,4.501) scale(1,-1) scale(0.0069444) " font-family="Helvetica,sans-serif" font-size="20px" stroke="none" fill="black" >innerDeferred.callback(&apos;inner result&apos;)</text>
<circle cx="3.04" cy="4.8" r="0.1" stroke-width="0.0094118" />
<text transform="translate(2.9899,4.751) scale(1,-1) scale(0.0069444) " font-family="Helvetica-Bold,Helvetica,sans-serif" font-weight="bold" font-size="20px" stroke="none" fill="black" >B</text>
<rect x="3.05" y="3.55" width="2.3" height="0.5" stroke-width="0.0094118" />
<text transform="translate(3.1212,3.751) scale(1,-1) scale(0.0069444) " font-family="Helvetica,sans-serif" font-size="20px" stroke="none" fill="black" >printAndPassThrough, args=(2, &apos;a&apos;)</text>
<rect x="3.05" y="3.05" width="2.3" height="0.5" stroke-width="0.0094118" />
<text transform="translate(3.1212,3.251) scale(1,-1) scale(0.0069444) " font-family="Helvetica,sans-serif" font-size="20px" stroke="none" fill="black" >printAndPassThrough, args=(2, &apos;b&apos;)</text>
<path d="M5.35,3.95 H5.35 Q5.7,3.95,5.7,3.775 Q5.7,3.6,5.7,3.65 Q5.7,3.7,5.7,3.525 Q5.7,3.35,5.35,3.35 " stroke-width="0.0094118" />
<polygon points="5.4437,3.3187 5.35,3.35 5.4437,3.3812 " stroke-width="0.0094118" fill="black" />
<line x1="5.35" y1="3.85" x2="5.35" y2="3.85" stroke-width="0.0094118" />
<path d="M5.35,3.85 L5.3578,3.85 L5.3654,3.8499 L5.3729,3.8497 L5.3803,3.8495 L5.3875,3.8492 L5.3947,3.8489 L5.4017,3.8485 L5.4086,3.848 L5.4154,3.8475 L5.422,3.8469 L5.4286,3.8463 L5.435,3.8456 L5.4412,3.8448 L5.4474,3.844 L5.4535,3.8431 L5.4594,3.8422 L5.4652,3.8412 L5.4708,3.8401 L5.4764,3.839 L5.4818,3.8378 L5.4871,3.8365 L5.4923,3.8352 L5.4974,3.8339 L5.5023,3.8324 L5.5072,3.8309 L5.5119,3.8294 L5.5164,3.8278 L5.5209,3.8261 L5.5252,3.8243 L5.5294,3.8225 L5.5335,3.8207 L5.5375,3.8187 L5.5413,3.8168 L5.5451,3.8147 L5.5487,3.8126 L5.5521,3.8104 L5.5555,3.8082 L5.5587,3.8059 L5.5619,3.8036 L5.5648,3.8012 L5.5677,3.7987 L5.5705,3.7962 L5.5731,3.7936 L5.5756,3.7909 L5.578,3.7882 L5.5802,3.7854 L5.5824,3.7826 L5.5844,3.7797 L5.5863,3.7767 L5.588,3.7737 L5.5897,3.7706 L5.5912,3.7675 L5.5926,3.7643 L5.5939,3.761 L5.5951,3.7577 L5.5961,3.7543 L5.597,3.7508 L5.5978,3.7473 L5.5985,3.7438 L5.599,3.7401 L5.5995,3.7364 L5.5998,3.7327 L5.5999,3.7289 L5.6,3.725 Q5.6,3.6,5.6,3.65 Q5.6,3.7,5.6,3.575 Q5.6,3.45,5.35,3.45 " stroke-width="0.0094118" stroke-dasharray="0.025, 0.025" />
<polygon points="5.4437,3.4187 5.35,3.45 5.4437,3.4812 " stroke-width="0.0094118" fill="black" />
<text transform="translate(5.7757,3.601) scale(1,-1) scale(0.0069444) " font-family="Helvetica,sans-serif" font-size="20px" stroke="none" fill="black" >&apos;inner result&apos;</text>
<line x1="4.29" y1="4.45" x2="4.29" y2="4.45" stroke-width="0.0094118" />
<path d="M4.29,4.45 Q4.59,4.45,4.5,4.05 " stroke-width="0.0094118" stroke-dasharray="0.025, 0.025" />
<polygon points="4.5511,4.1346 4.5,4.05 4.4901,4.1483 " stroke-width="0.0094118" fill="black" />
<path d="M4.29,4.55 H4.29 Q4.59,4.55,4.6,4.05 " stroke-width="0.0094118" />
<polygon points="4.6294,4.1444 4.6,4.05 4.5669,4.1431 " stroke-width="0.0094118" fill="black" />
<path d="M2.9562,4.05 L2.9532,4.0499 L2.9501,4.0497 L2.9471,4.0493 L2.9441,4.0488 L2.9411,4.0481 L2.9381,4.0473 L2.9352,4.0463 L2.9323,4.0452 L2.9295,4.044 L2.9268,4.0426 L2.9241,4.0411 L2.9215,4.0395 L2.919,4.0377 L2.9166,4.0358 L2.9143,4.0338 L2.9121,4.0317 L2.9099,4.0295 L2.9079,4.0271 L2.906,4.0247 L2.9043,4.0222 L2.9026,4.0196 L2.9011,4.017 L2.8998,4.0142 L2.8985,4.0114 L2.8974,4.0086 L2.8964,4.0056 L2.8956,4.0027 L2.895,3.9997 L2.8944,3.9967 L2.8941,3.9936 L2.8938,3.9906 L2.8937,3.9875 V3.5812 L2.8625,3.55 L2.8937,3.5187 V3.1125 C2.8937,3.078,2.9217,3.05,2.9562,3.05 " stroke-width="0.0094118" />
<text transform="translate(1.8878,3.501) scale(1,-1) scale(0.0069444) " font-family="Helvetica,sans-serif" font-size="20px" stroke="none" fill="black" >innerDeferred&apos;s</text>
<text transform="translate(2.0769,3.351) scale(1,-1) scale(0.0069444) " font-family="Helvetica,sans-serif" font-size="20px" stroke="none" fill="black" >callbacks</text>
<path d="M3.55,6.325 L3.5816,6.3246 L3.6139,6.3232 L3.6468,6.321 L3.6805,6.318 L3.7148,6.314 L3.7498,6.3092 L3.7855,6.3035 L3.8219,6.2969 L3.8589,6.2894 L3.8967,6.2811 L3.9351,6.2718 L3.9742,6.2617 L4.014,6.2507 L4.0545,6.2389 L4.0957,6.2261 L4.1375,6.2125 L4.18,6.198 L4.2232,6.1826 L4.2671,6.1664 L4.3117,6.1492 L4.357,6.1312 L4.4029,6.1123 L4.4496,6.0925 L4.4969,6.0719 L4.5449,6.0503 L4.5936,6.0279 L4.6429,6.0046 L4.693,5.9805 L4.7437,5.9554 L4.7951,5.9295 L4.8472,5.9027 L4.9,5.875 Q5.75,5.425,6.7,4.25 " stroke-width="0.0094118" stroke-dasharray="0.025, 0.025" />
<polygon points="6.6654,4.3426 6.7,4.25 6.6168,4.3033 " stroke-width="0.0094118" fill="black" />
<path d="M5.35,3.15 L5.3872,3.1501 L5.424,3.1504 L5.4602,3.1508 L5.4959,3.1515 L5.5311,3.1523 L5.5658,3.1533 L5.5999,3.1545 L5.6336,3.1559 L5.6667,3.1574 L5.6994,3.1592 L5.7315,3.1611 L5.7631,3.1632 L5.7942,3.1655 L5.8248,3.1679 L5.8548,3.1706 L5.8844,3.1734 L5.9134,3.1765 L5.9419,3.1797 L5.97,3.1831 L5.9975,3.1866 L6.0245,3.1904 L6.0509,3.1943 L6.0769,3.1984 L6.1023,3.2027 L6.1273,3.2072 L6.1517,3.2119 L6.1756,3.2167 L6.199,3.2218 L6.2219,3.227 L6.2443,3.2324 L6.2661,3.238 L6.2875,3.2437 L6.3083,3.2497 L6.3287,3.2558 L6.3485,3.2622 L6.3678,3.2687 L6.3866,3.2753 L6.4048,3.2822 L6.4226,3.2893 L6.4398,3.2965 L6.4566,3.3039 L6.4728,3.3115 L6.4885,3.3193 L6.5037,3.3272 L6.5184,3.3354 L6.5326,3.3437 L6.5462,3.3522 L6.5594,3.3609 L6.572,3.3698 L6.5841,3.3789 L6.5957,3.3881 L6.6068,3.3976 L6.6174,3.4072 L6.6275,3.417 L6.637,3.4269 L6.6461,3.4371 L6.6546,3.4475 L6.6626,3.458 L6.6702,3.4687 L6.6771,3.4796 L6.6836,3.4907 L6.6896,3.5019 L6.6951,3.5134 L6.7,3.525 Q6.85,3.9,6.35,4.45 Q5.85,5,5.6,5.24 Q5.35,5.48,4.875,5.78 Q4.4,6.08,3.55,6.125 " stroke-width="0.0094118" />
<polygon points="3.642,6.0888 3.55,6.125 3.6453,6.1513 " stroke-width="0.0094118" fill="black" />
<path d="M5.35,3.25 L5.3826,3.2501 L5.4148,3.2503 L5.4465,3.2507 L5.4778,3.2512 L5.5087,3.2518 L5.5392,3.2526 L5.5692,3.2536 L5.5988,3.2547 L5.628,3.2559 L5.6568,3.2573 L5.6851,3.2589 L5.713,3.2605 L5.7405,3.2624 L5.7675,3.2644 L5.7941,3.2665 L5.8203,3.2687 L5.8461,3.2712 L5.8714,3.2737 L5.8963,3.2764 L5.9208,3.2793 L5.9449,3.2823 L5.9685,3.2854 L5.9917,3.2887 L6.0145,3.2922 L6.0368,3.2958 L6.0587,3.2995 L6.0802,3.3034 L6.1013,3.3074 L6.1219,3.3116 L6.1421,3.3159 L6.1619,3.3204 L6.1812,3.325 L6.2002,3.3298 L6.2187,3.3347 L6.2367,3.3397 L6.2544,3.3449 L6.2716,3.3503 L6.2884,3.3558 L6.3048,3.3614 L6.3207,3.3672 L6.3362,3.3731 L6.3513,3.3792 L6.3659,3.3854 L6.3802,3.3918 L6.394,3.3983 L6.4073,3.405 L6.4203,3.4118 L6.4328,3.4187 L6.4449,3.4259 L6.4566,3.4331 L6.4678,3.4405 L6.4786,3.448 L6.489,3.4557 L6.499,3.4636 L6.5085,3.4716 L6.5176,3.4797 L6.5263,3.488 L6.5345,3.4964 L6.5423,3.505 L6.5497,3.5137 L6.5567,3.5225 L6.5632,3.5315 L6.5693,3.5407 L6.575,3.55 Q6.75,3.85,6.025,4.625 Q5.3,5.4,4.85,5.7 Q4.4,6,3.55,6.025 " stroke-width="0.0094118" stroke-dasharray="0.025, 0.025" />
<polygon points="3.6428,5.991 3.55,6.025 3.6446,6.0535 " stroke-width="0.0094118" fill="black" />
</g>
</svg>
