<?xml version="1.0" encoding="ISO-8859-1" standalone="no"?>
<!DOCTYPE svg PUBLIC "-//W3C//DTD SVG 1.1//EN" "http://www.w3.org/Graphics/SVG/1.1/DTD/svg11.dtd">
<svg version="1.1" baseProfile="full" id="body" width="8in" height="8in" viewBox="0 0 1 1" preserveAspectRatio="none" xmlns="http://www.w3.org/2000/svg" xmlns:xlink="http://www.w3.org/1999/xlink" xmlns:ev="http://www.w3.org/2001/xml-events">
<title>SVG drawing</title>
<desc>This was produced by version 4.4 of GNU libplot, a free library for exporting 2-D vector graphics.</desc>
<rect id="background" x="0" y="0" width="1" height="1" stroke="none" fill="white"/>
<g id="content" transform="translate(0.34687,0.42969) scale(1,-1) scale(0.125) " xml:space="preserve" stroke="black" stroke-linecap="butt" stroke-linejoin="miter" stroke-miterlimit="10.433" stroke-dasharray="none" stroke-dashoffset="0" stroke-opacity="1" fill="none" fill-rule="evenodd" fill-opacity="1" font-style="normal" font-variant="normal" font-weight="normal" font-stretch="normal" font-size-adjust="none" letter-spacing="normal" word-spacing="normal" text-anchor="start">
<text transform="translate(0.047778,-0.049028) scale(1,-1) scale(0.0069444) " font-family="Helvetica,sans-serif" font-size="20px" stroke="none" fill="black" >g1</text>
<rect x="0.25" y="-0.125" width="2" height="0.25" stroke-width="0.0094118" fill="#e6e6e6" />
<text transform="translate(0.79458,-0.049028) scale(1,-1) scale(0.0069444) " font-family="Helvetica,sans-serif" font-size="20px" stroke="none" fill="black" >...yield from g2</text>
<text transform="translate(0.047778,-0.29903) scale(1,-1) scale(0.0069444) " font-family="Helvetica,sans-serif" font-size="20px" stroke="none" fill="black" >g2</text>
<rect x="0.25" y="-0.375" width="2" height="0.25" stroke-width="0.0094118" fill="#e6e6e6" />
<text transform="translate(0.79458,-0.29903) scale(1,-1) scale(0.0069444) " font-family="Helvetica,sans-serif" font-size="20px" stroke="none" fill="black" >...yield from g3</text>
<text transform="translate(0.047778,-0.54903) scale(1,-1) scale(0.0069444) " font-family="Helvetica,sans-serif" font-size="20px" stroke="none" fill="black" >g3</text>
<rect x="0.25" y="-0.625" width="2" height="0.25" stroke-width="0.0094118" fill="#e6e6e6" />
<text transform="translate(0.79458,-0.54903) scale(1,-1) scale(0.0069444) " font-family="Helvetica,sans-serif" font-size="20px" stroke="none" fill="black" >...yield from g4</text>
<text transform="translate(0.047778,-0.79903) scale(1,-1) scale(0.0069444) " font-family="Helvetica,sans-serif" font-size="20px" stroke="none" fill="black" >g4</text>
<rect x="0.25" y="-0.875" width="2" height="0.25" stroke-width="0.0094118" fill="#e6e6e6" />
<text transform="translate(0.79458,-0.79903) scale(1,-1) scale(0.0069444) " font-family="Helvetica,sans-serif" font-size="20px" stroke="none" fill="black" >...yield from g5</text>
<text transform="translate(0.047778,-1.049) scale(1,-1) scale(0.0069444) " font-family="Helvetica,sans-serif" font-size="20px" stroke="none" fill="black" >g5</text>
<rect x="0.25" y="-1.125" width="2" height="0.25" stroke-width="0.0094118" fill="white" />
<text transform="translate(1.0493,-1.049) scale(1,-1) scale(0.0069444) " font-family="Helvetica,sans-serif" font-size="20px" stroke="none" fill="black" >yield 1</text>
<line x1="2.25" y1="0" x2="2.25" y2="0" stroke-width="0.0094118" />
<path d="M2.25,0 L2.2562,-2.4414e-05 L2.2623,-9.7656e-05 L2.2683,-0.00021973 L2.2742,-0.00039063 L2.28,-0.00061035 L2.2857,-0.00087891 L2.2914,-0.0011963 L2.2969,-0.0015625 L2.3023,-0.0019775 L2.3076,-0.0024414 L2.3128,-0.0029541 L2.318,-0.0035156 L2.323,-0.004126 L2.3279,-0.0047852 L2.3328,-0.0054932 L2.3375,-0.00625 L2.3421,-0.0070557 L2.3467,-0.0079102 L2.3511,-0.0088135 L2.3555,-0.0097656 L2.3597,-0.010767 L2.3639,-0.011816 L2.3679,-0.012915 L2.3719,-0.014063 L2.3757,-0.015259 L2.3795,-0.016504 L2.3832,-0.017798 L2.3867,-0.019141 L2.3902,-0.020532 L2.3936,-0.021973 L2.3968,-0.023462 L2.4,-0.025 L2.4031,-0.026587 L2.4061,-0.028223 L2.4089,-0.029907 L2.4117,-0.031641 L2.4144,-0.033423 L2.417,-0.035254 L2.4195,-0.037134 L2.4219,-0.039062 L2.4242,-0.04104 L2.4264,-0.043066 L2.4285,-0.045142 L2.4305,-0.047266 L2.4324,-0.049438 L2.4342,-0.05166 L2.4359,-0.053931 L2.4375,-0.05625 L2.439,-0.058618 L2.4404,-0.061035 L2.4417,-0.063501 L2.443,-0.066016 L2.4441,-0.068579 L2.4451,-0.071191 L2.446,-0.073853 L2.4469,-0.076563 L2.4476,-0.079321 L2.4482,-0.082129 L2.4488,-0.084985 L2.4492,-0.087891 L2.4496,-0.090845 L2.4498,-0.093848 L2.45,-0.096899 L2.45,-0.1 Q2.45,-0.2,2.45,-0.125 Q2.45,-0.05,2.45,-0.15 Q2.45,-0.25,2.25,-0.25 " stroke-width="0.0094118" stroke-dasharray="0.025, 0.025" />
<line x1="2.25" y1="-0.25" x2="2.25" y2="-0.25" stroke-width="0.0094118" />
<path d="M2.25,-0.25 L2.2562,-0.25002 L2.2623,-0.2501 L2.2683,-0.25022 L2.2742,-0.25039 L2.28,-0.25061 L2.2857,-0.25088 L2.2914,-0.2512 L2.2969,-0.25156 L2.3023,-0.25198 L2.3076,-0.25244 L2.3128,-0.25295 L2.318,-0.25352 L2.323,-0.25413 L2.3279,-0.25479 L2.3328,-0.25549 L2.3375,-0.25625 L2.3421,-0.25706 L2.3467,-0.25791 L2.3511,-0.25881 L2.3555,-0.25977 L2.3597,-0.26077 L2.3639,-0.26182 L2.3679,-0.26292 L2.3719,-0.26406 L2.3757,-0.26526 L2.3795,-0.2665 L2.3832,-0.2678 L2.3867,-0.26914 L2.3902,-0.27053 L2.3936,-0.27197 L2.3968,-0.27346 L2.4,-0.275 L2.4031,-0.27659 L2.4061,-0.27822 L2.4089,-0.27991 L2.4117,-0.28164 L2.4144,-0.28342 L2.417,-0.28525 L2.4195,-0.28713 L2.4219,-0.28906 L2.4242,-0.29104 L2.4264,-0.29307 L2.4285,-0.29514 L2.4305,-0.29727 L2.4324,-0.29944 L2.4342,-0.30166 L2.4359,-0.30393 L2.4375,-0.30625 L2.439,-0.30862 L2.4404,-0.31104 L2.4417,-0.3135 L2.443,-0.31602 L2.4441,-0.31858 L2.4451,-0.32119 L2.446,-0.32385 L2.4469,-0.32656 L2.4476,-0.32932 L2.4482,-0.33213 L2.4488,-0.33499 L2.4492,-0.33789 L2.4496,-0.34084 L2.4498,-0.34385 L2.45,-0.3469 L2.45,-0.35 Q2.45,-0.45,2.45,-0.375 Q2.45,-0.3,2.45,-0.4 Q2.45,-0.5,2.25,-0.5 " stroke-width="0.0094118" stroke-dasharray="0.025, 0.025" />
<line x1="2.25" y1="-0.5" x2="2.25" y2="-0.5" stroke-width="0.0094118" />
<path d="M2.25,-0.5 L2.2562,-0.50002 L2.2623,-0.5001 L2.2683,-0.50022 L2.2742,-0.50039 L2.28,-0.50061 L2.2857,-0.50088 L2.2914,-0.5012 L2.2969,-0.50156 L2.3023,-0.50198 L2.3076,-0.50244 L2.3128,-0.50295 L2.318,-0.50352 L2.323,-0.50413 L2.3279,-0.50479 L2.3328,-0.50549 L2.3375,-0.50625 L2.3421,-0.50706 L2.3467,-0.50791 L2.3511,-0.50881 L2.3555,-0.50977 L2.3597,-0.51077 L2.3639,-0.51182 L2.3679,-0.51292 L2.3719,-0.51406 L2.3757,-0.51526 L2.3795,-0.5165 L2.3832,-0.5178 L2.3867,-0.51914 L2.3902,-0.52053 L2.3936,-0.52197 L2.3968,-0.52346 L2.4,-0.525 L2.4031,-0.52659 L2.4061,-0.52822 L2.4089,-0.52991 L2.4117,-0.53164 L2.4144,-0.53342 L2.417,-0.53525 L2.4195,-0.53713 L2.4219,-0.53906 L2.4242,-0.54104 L2.4264,-0.54307 L2.4285,-0.54514 L2.4305,-0.54727 L2.4324,-0.54944 L2.4342,-0.55166 L2.4359,-0.55393 L2.4375,-0.55625 L2.439,-0.55862 L2.4404,-0.56104 L2.4417,-0.5635 L2.443,-0.56602 L2.4441,-0.56858 L2.4451,-0.57119 L2.446,-0.57385 L2.4469,-0.57656 L2.4476,-0.57932 L2.4482,-0.58213 L2.4488,-0.58499 L2.4492,-0.58789 L2.4496,-0.59084 L2.4498,-0.59385 L2.45,-0.5969 L2.45,-0.6 Q2.45,-0.7,2.45,-0.625 Q2.45,-0.55,2.45,-0.65 Q2.45,-0.75,2.25,-0.75 " stroke-width="0.0094118" stroke-dasharray="0.025, 0.025" />
<line x1="2.25" y1="-0.75" x2="2.25" y2="-0.75" stroke-width="0.0094118" />
<path d="M2.25,-0.75 L2.2562,-0.75002 L2.2623,-0.7501 L2.2683,-0.75022 L2.2742,-0.75039 L2.28,-0.75061 L2.2857,-0.75088 L2.2914,-0.7512 L2.2969,-0.75156 L2.3023,-0.75198 L2.3076,-0.75244 L2.3128,-0.75295 L2.318,-0.75352 L2.323,-0.75413 L2.3279,-0.75479 L2.3328,-0.75549 L2.3375,-0.75625 L2.3421,-0.75706 L2.3467,-0.75791 L2.3511,-0.75881 L2.3555,-0.75977 L2.3597,-0.76077 L2.3639,-0.76182 L2.3679,-0.76292 L2.3719,-0.76406 L2.3757,-0.76526 L2.3795,-0.7665 L2.3832,-0.7678 L2.3867,-0.76914 L2.3902,-0.77053 L2.3936,-0.77197 L2.3968,-0.77346 L2.4,-0.775 L2.4031,-0.77659 L2.4061,-0.77822 L2.4089,-0.77991 L2.4117,-0.78164 L2.4144,-0.78342 L2.417,-0.78525 L2.4195,-0.78713 L2.4219,-0.78906 L2.4242,-0.79104 L2.4264,-0.79307 L2.4285,-0.79514 L2.4305,-0.79727 L2.4324,-0.79944 L2.4342,-0.80166 L2.4359,-0.80393 L2.4375,-0.80625 L2.439,-0.80862 L2.4404,-0.81104 L2.4417,-0.8135 L2.443,-0.81602 L2.4441,-0.81858 L2.4451,-0.82119 L2.446,-0.82385 L2.4469,-0.82656 L2.4476,-0.82932 L2.4482,-0.83213 L2.4488,-0.83499 L2.4492,-0.83789 L2.4496,-0.84084 L2.4498,-0.84385 L2.45,-0.8469 L2.45,-0.85 Q2.45,-0.95,2.45,-0.875 Q2.45,-0.8,2.45,-0.9 Q2.45,-1,2.25,-1 " stroke-width="0.0094118" stroke-dasharray="0.025, 0.025" />
<polygon points="2.3438,-1.0312 2.25,-1 2.3438,-0.96875 " stroke-width="0.0094118" fill="black" />
</g>
</svg>
