<?xml version="1.0" encoding="UTF-8" standalone="no"?>
<!DOCTYPE svg PUBLIC "-//W3C//DTD SVG 1.1//EN"
 "http://www.w3.org/Graphics/SVG/1.1/DTD/svg11.dtd">
<!-- Generated by graphviz version 2.38.0 (20140413.2041)
 -->
<!-- Title: %3 Pages: 1 -->
<svg width="617pt" height="389pt"
 viewBox="0.00 0.00 617.24 388.65" xmlns="http://www.w3.org/2000/svg" xmlns:xlink="http://www.w3.org/1999/xlink">
<g id="graph0" class="graph" transform="scale(1 1) rotate(0) translate(4 384.647)">
<title>%3</title>
<polygon fill="white" stroke="none" points="-4,4 -4,-384.647 613.24,-384.647 613.24,4 -4,4"/>
<!-- start -->
<g id="node1" class="node"><title>start</title>
<ellipse fill="none" stroke="black" stroke-dasharray="1,5" cx="53.7401" cy="-343.17" rx="53.9813" ry="37.4533"/>
<text text-anchor="middle" x="53.7401" y="-354.47" font-family="Times,serif" font-size="14.00">A:</text>
<text text-anchor="middle" x="53.7401" y="-339.47" font-family="Times,serif" font-size="14.00">Nameplate</text>
<text text-anchor="middle" x="53.7401" y="-324.47" font-family="Times,serif" font-size="14.00">Allocation</text>
</g>
<!-- S0A -->
<g id="node2" class="node"><title>S0A</title>
<ellipse fill="none" stroke="orange" cx="204.74" cy="-343.17" rx="61.5366" ry="37.4533"/>
<text text-anchor="middle" x="204.74" y="-354.47" font-family="Times,serif" font-size="14.00">S0A:</text>
<text text-anchor="middle" x="204.74" y="-339.47" font-family="Times,serif" font-size="14.00">idle</text>
<text text-anchor="middle" x="204.74" y="-324.47" font-family="Times,serif" font-size="14.00">disconnected</text>
</g>
<!-- start&#45;&gt;S0A -->
<!-- S0B -->
<g id="node3" class="node"><title>S0B</title>
<ellipse fill="none" stroke="black" cx="388.74" cy="-343.17" rx="50.41" ry="37.4533"/>
<text text-anchor="middle" x="388.74" y="-354.47" font-family="Times,serif" font-size="14.00">S0B:</text>
<text text-anchor="middle" x="388.74" y="-339.47" font-family="Times,serif" font-size="14.00">idle</text>
<text text-anchor="middle" x="388.74" y="-324.47" font-family="Times,serif" font-size="14.00">connected</text>
</g>
<!-- S0A&#45;&gt;S0B -->
<g id="edge2" class="edge"><title>S0A&#45;&gt;S0B</title>
<path fill="none" stroke="black" d="M266.265,-343.17C286.193,-343.17 308.272,-343.17 328.133,-343.17"/>
<polygon fill="black" stroke="black" points="328.294,-346.67 338.294,-343.17 328.294,-339.67 328.294,-346.67"/>
<text text-anchor="middle" x="302.397" y="-349.97" font-family="Times,serif" font-size="14.00">connected</text>
</g>
<!-- S1A -->
<g id="node4" class="node"><title>S1A</title>
<ellipse fill="none" stroke="orange" cx="204.74" cy="-217.217" rx="61.5366" ry="37.4533"/>
<text text-anchor="middle" x="204.74" y="-228.517" font-family="Times,serif" font-size="14.00">S1A:</text>
<text text-anchor="middle" x="204.74" y="-213.517" font-family="Times,serif" font-size="14.00">allocating</text>
<text text-anchor="middle" x="204.74" y="-198.517" font-family="Times,serif" font-size="14.00">disconnected</text>
</g>
<!-- S0A&#45;&gt;S1A -->
<g id="edge4" class="edge"><title>S0A&#45;&gt;S1A</title>
<path fill="none" stroke="orange" d="M204.74,-305.65C204.74,-292.903 204.74,-278.417 204.74,-264.954"/>
<polygon fill="orange" stroke="orange" points="208.24,-264.904 204.74,-254.904 201.24,-264.904 208.24,-264.904"/>
<text text-anchor="middle" x="273.24" y="-276.493" font-family="Times,serif" font-size="14.00">allocate(length, wordlist)</text>
</g>
<!-- S0B&#45;&gt;S0A -->
<g id="edge3" class="edge"><title>S0B&#45;&gt;S0A</title>
<path fill="none" stroke="black" d="M341.394,-330.215C331.864,-328.116 321.865,-326.271 312.397,-325.17 299.047,-323.618 284.832,-324.307 271.255,-326.115"/>
<polygon fill="black" stroke="black" points="270.369,-322.71 261.021,-327.697 271.439,-329.628 270.369,-322.71"/>
<text text-anchor="middle" x="302.397" y="-328.97" font-family="Times,serif" font-size="14.00">lost</text>
</g>
<!-- P_allocate -->
<g id="node5" class="node"><title>P_allocate</title>
<polygon fill="none" stroke="orange" points="436.74,-235.217 338.74,-235.217 338.74,-199.217 436.74,-199.217 436.74,-235.217"/>
<text text-anchor="middle" x="387.74" y="-213.517" font-family="Times,serif" font-size="14.00">RC.tx_allocate</text>
</g>
<!-- S0B&#45;&gt;P_allocate -->
<g id="edge5" class="edge"><title>S0B&#45;&gt;P_allocate</title>
<path fill="none" stroke="black" d="M381.905,-305.937C381.005,-299.866 380.226,-293.617 379.74,-287.693 378.592,-273.702 380.113,-258.176 382.126,-245.356"/>
<polygon fill="black" stroke="black" points="385.607,-245.771 383.885,-235.317 378.712,-244.563 385.607,-245.771"/>
<text text-anchor="middle" x="448.24" y="-276.493" font-family="Times,serif" font-size="14.00">allocate(length, wordlist)</text>
</g>
<!-- S1B -->
<g id="node6" class="node"><title>S1B</title>
<ellipse fill="none" stroke="orange" cx="522.74" cy="-217.217" rx="50.41" ry="37.4533"/>
<text text-anchor="middle" x="522.74" y="-228.517" font-family="Times,serif" font-size="14.00">S1B:</text>
<text text-anchor="middle" x="522.74" y="-213.517" font-family="Times,serif" font-size="14.00">allocating</text>
<text text-anchor="middle" x="522.74" y="-198.517" font-family="Times,serif" font-size="14.00">connected</text>
</g>
<!-- S0B&#45;&gt;S1B -->
<!-- S1A&#45;&gt;P_allocate -->
<g id="edge10" class="edge"><title>S1A&#45;&gt;P_allocate</title>
<path fill="none" stroke="orange" d="M266.44,-217.217C286.498,-217.217 308.701,-217.217 328.57,-217.217"/>
<polygon fill="orange" stroke="orange" points="328.723,-220.717 338.723,-217.217 328.723,-213.717 328.723,-220.717"/>
<text text-anchor="middle" x="302.499" y="-224.017" font-family="Times,serif" font-size="14.00">connected</text>
</g>
<!-- P_allocate&#45;&gt;S1B -->
<g id="edge6" class="edge"><title>P_allocate&#45;&gt;S1B</title>
<path fill="none" stroke="orange" d="M436.783,-217.217C445.31,-217.217 453.837,-217.217 462.365,-217.217"/>
<polygon fill="orange" stroke="orange" points="462.375,-220.717 472.375,-217.217 462.375,-213.717 462.375,-220.717"/>
</g>
<!-- foo -->
<g id="node7" class="node"><title>foo</title>
<ellipse fill="none" stroke="black" stroke-dasharray="1,5" cx="344.74" cy="-109.74" rx="27" ry="18"/>
</g>
<!-- S1B&#45;&gt;foo -->
<g id="edge8" class="edge"><title>S1B&#45;&gt;foo</title>
<path fill="none" stroke="black" d="M483.677,-193.069C450.289,-173.285 403.038,-145.286 373.148,-127.574"/>
<polygon fill="black" stroke="black" points="374.851,-124.515 364.464,-122.428 371.283,-130.537 374.851,-124.515"/>
<text text-anchor="middle" x="437.74" y="-150.54" font-family="Times,serif" font-size="14.00">lost</text>
</g>
<!-- P_allocated -->
<g id="node8" class="node"><title>P_allocated</title>
<polygon fill="none" stroke="orange" points="609.24,-128.74 436.24,-128.74 436.24,-90.7401 609.24,-90.7401 609.24,-128.74"/>
<text text-anchor="middle" x="522.74" y="-113.54" font-family="Times,serif" font-size="14.00">choose words</text>
<text text-anchor="middle" x="522.74" y="-98.5401" font-family="Times,serif" font-size="14.00">C.allocated(nameplate,code)</text>
</g>
<!-- S1B&#45;&gt;P_allocated -->
<g id="edge11" class="edge"><title>S1B&#45;&gt;P_allocated</title>
<path fill="none" stroke="orange" d="M522.74,-179.622C522.74,-166.368 522.74,-151.609 522.74,-139.163"/>
<polygon fill="orange" stroke="orange" points="526.24,-138.917 522.74,-128.917 519.24,-138.917 526.24,-138.917"/>
<text text-anchor="middle" x="556.24" y="-150.54" font-family="Times,serif" font-size="14.00">rx_allocated</text>
</g>
<!-- foo&#45;&gt;S1A -->
<g id="edge9" class="edge"><title>foo&#45;&gt;S1A</title>
<path fill="none" stroke="black" d="M327.603,-123.651C308.55,-138.006 276.986,-161.787 250.622,-181.65"/>
<polygon fill="black" stroke="black" points="248.507,-178.86 242.626,-187.673 252.719,-184.451 248.507,-178.86"/>
</g>
<!-- S2 -->
<g id="node9" class="node"><title>S2</title>
<ellipse fill="none" stroke="orange" cx="522.74" cy="-26.8701" rx="30.3115" ry="26.7407"/>
<text text-anchor="middle" x="522.74" y="-30.6701" font-family="Times,serif" font-size="14.00">S2:</text>
<text text-anchor="middle" x="522.74" y="-15.6701" font-family="Times,serif" font-size="14.00">done</text>
</g>
<!-- P_allocated&#45;&gt;S2 -->
<g id="edge12" class="edge"><title>P_allocated&#45;&gt;S2</title>
<path fill="none" stroke="orange" d="M522.74,-90.3894C522.74,-82.5342 522.74,-73.0748 522.74,-63.919"/>
<polygon fill="orange" stroke="orange" points="526.24,-63.8124 522.74,-53.8124 519.24,-63.8125 526.24,-63.8124"/>
</g>
</g>
</svg>
