<?xml version="1.0" encoding="UTF-8" standalone="no"?>
<!DOCTYPE svg PUBLIC "-//W3C//DTD SVG 1.1//EN"
 "http://www.w3.org/Graphics/SVG/1.1/DTD/svg11.dtd">
<!-- Generated by graphviz version 2.38.0 (20140413.2041)
 -->
<!-- Title: %3 Pages: 1 -->
<svg width="573pt" height="332pt"
 viewBox="0.00 0.00 572.53 332.00" xmlns="http://www.w3.org/2000/svg" xmlns:xlink="http://www.w3.org/1999/xlink">
<g id="graph0" class="graph" transform="scale(1 1) rotate(0) translate(4 328)">
<title>%3</title>
<polygon fill="white" stroke="none" points="-4,4 -4,-328 568.535,-328 568.535,4 -4,4"/>
<!-- . -->
<g id="node1" class="node"><title>.</title>
<ellipse fill="none" stroke="black" cx="192.84" cy="-306" rx="27" ry="18"/>
<text text-anchor="middle" x="192.84" y="-302.3" font-family="Times,serif" font-size="14.00">./</text>
</g>
<!-- ./setup.py -->
<g id="node2" class="node"><title>./setup.py</title>
<ellipse fill="none" stroke="black" cx="150.84" cy="-234" rx="40.0939" ry="18"/>
<text text-anchor="middle" x="150.84" y="-230.3" font-family="Times,serif" font-size="14.00">setup.py</text>
</g>
<!-- .&#45;&gt;./setup.py -->
<g id="edge1" class="edge"><title>.&#45;&gt;./setup.py</title>
<path fill="none" stroke="black" d="M183.31,-289.116C178.248,-280.679 171.903,-270.104 166.168,-260.547"/>
<polygon fill="black" stroke="black" points="169.065,-258.572 160.919,-251.797 163.062,-262.173 169.065,-258.572"/>
</g>
<!-- ./src -->
<g id="node3" class="node"><title>./src</title>
<ellipse fill="none" stroke="black" cx="235.84" cy="-234" rx="27" ry="18"/>
<text text-anchor="middle" x="235.84" y="-230.3" font-family="Times,serif" font-size="14.00">src/</text>
</g>
<!-- .&#45;&gt;./src -->
<g id="edge2" class="edge"><title>.&#45;&gt;./src</title>
<path fill="none" stroke="black" d="M202.598,-289.116C207.985,-280.345 214.793,-269.264 220.842,-259.416"/>
<polygon fill="black" stroke="black" points="223.87,-261.174 226.122,-250.821 217.905,-257.51 223.87,-261.174"/>
</g>
<!-- ./src/twisted -->
<g id="node4" class="node"><title>./src/twisted</title>
<ellipse fill="none" stroke="black" cx="158.84" cy="-162" rx="38.1938" ry="18"/>
<text text-anchor="middle" x="158.84" y="-158.3" font-family="Times,serif" font-size="14.00">twisted/</text>
</g>
<!-- ./src&#45;&gt;./src/twisted -->
<g id="edge3" class="edge"><title>./src&#45;&gt;./src/twisted</title>
<path fill="none" stroke="black" d="M220.258,-218.834C209.66,-209.2 195.419,-196.253 183.318,-185.253"/>
<polygon fill="black" stroke="black" points="185.489,-182.496 175.735,-178.359 180.78,-187.676 185.489,-182.496"/>
</g>
<!-- ./src/feed_aggregation -->
<g id="node5" class="node"><title>./src/feed_aggregation</title>
<ellipse fill="none" stroke="black" cx="313.84" cy="-162" rx="74.187" ry="18"/>
<text text-anchor="middle" x="313.84" y="-158.3" font-family="Times,serif" font-size="14.00">feed_aggregation/</text>
</g>
<!-- ./src&#45;&gt;./src/feed_aggregation -->
<g id="edge4" class="edge"><title>./src&#45;&gt;./src/feed_aggregation</title>
<path fill="none" stroke="black" d="M251.251,-219.17C261.667,-209.822 275.679,-197.248 287.804,-186.366"/>
<polygon fill="black" stroke="black" points="290.339,-188.794 295.443,-179.51 285.663,-183.584 290.339,-188.794"/>
</g>
<!-- ./src/twisted/plugins -->
<g id="node6" class="node"><title>./src/twisted/plugins</title>
<ellipse fill="none" stroke="black" cx="109.84" cy="-90" rx="38.9931" ry="18"/>
<text text-anchor="middle" x="109.84" y="-86.3" font-family="Times,serif" font-size="14.00">plugins/</text>
</g>
<!-- ./src/twisted&#45;&gt;./src/twisted/plugins -->
<g id="edge5" class="edge"><title>./src/twisted&#45;&gt;./src/twisted/plugins</title>
<path fill="none" stroke="black" d="M147.476,-144.765C141.501,-136.23 134.048,-125.582 127.354,-116.019"/>
<polygon fill="black" stroke="black" points="130.086,-113.819 121.484,-107.633 124.351,-117.833 130.086,-113.819"/>
</g>
<!-- ./src/feed_aggregation/_service.py -->
<g id="node8" class="node"><title>./src/feed_aggregation/_service.py</title>
<ellipse fill="none" stroke="black" cx="217.84" cy="-90" rx="51.1914" ry="18"/>
<text text-anchor="middle" x="217.84" y="-86.3" font-family="Times,serif" font-size="14.00">_service.py</text>
</g>
<!-- ./src/feed_aggregation&#45;&gt;./src/feed_aggregation/_service.py -->
<g id="edge7" class="edge"><title>./src/feed_aggregation&#45;&gt;./src/feed_aggregation/_service.py</title>
<path fill="none" stroke="black" d="M291.575,-144.765C278.456,-135.199 261.696,-122.978 247.471,-112.606"/>
<polygon fill="black" stroke="black" points="249.139,-109.491 238.997,-106.427 245.015,-115.147 249.139,-109.491"/>
</g>
<!-- ./src/feed_aggregation/__init__.py -->
<g id="node9" class="node"><title>./src/feed_aggregation/__init__.py</title>
<ellipse fill="none" stroke="black" cx="338.84" cy="-90" rx="51.1914" ry="18"/>
<text text-anchor="middle" x="338.84" y="-86.3" font-family="Times,serif" font-size="14.00">__init__.py</text>
</g>
<!-- ./src/feed_aggregation&#45;&gt;./src/feed_aggregation/__init__.py -->
<g id="edge8" class="edge"><title>./src/feed_aggregation&#45;&gt;./src/feed_aggregation/__init__.py</title>
<path fill="none" stroke="black" d="M319.892,-144.055C322.706,-136.176 326.12,-126.617 329.271,-117.794"/>
<polygon fill="black" stroke="black" points="332.603,-118.87 332.671,-108.275 326.011,-116.516 332.603,-118.87"/>
</g>
<!-- ./src/feed_aggregation/test -->
<g id="node10" class="node"><title>./src/feed_aggregation/test</title>
<ellipse fill="none" stroke="black" cx="434.84" cy="-90" rx="27" ry="18"/>
<text text-anchor="middle" x="434.84" y="-86.3" font-family="Times,serif" font-size="14.00">test/</text>
</g>
<!-- ./src/feed_aggregation&#45;&gt;./src/feed_aggregation/test -->
<g id="edge9" class="edge"><title>./src/feed_aggregation&#45;&gt;./src/feed_aggregation/test</title>
<path fill="none" stroke="black" d="M341.297,-145.116C360.679,-133.903 386.589,-118.914 406.225,-107.554"/>
<polygon fill="black" stroke="black" points="408.128,-110.497 415.031,-102.46 404.622,-104.438 408.128,-110.497"/>
</g>
<!-- ./src/twisted/plugins/feed_aggregation_plugin.py -->
<g id="node7" class="node"><title>./src/twisted/plugins/feed_aggregation_plugin.py</title>
<ellipse fill="none" stroke="black" cx="109.84" cy="-18" rx="109.681" ry="18"/>
<text text-anchor="middle" x="109.84" y="-14.3" font-family="Times,serif" font-size="14.00">feed_aggregation_plugin.py</text>
</g>
<!-- ./src/twisted/plugins&#45;&gt;./src/twisted/plugins/feed_aggregation_plugin.py -->
<g id="edge6" class="edge"><title>./src/twisted/plugins&#45;&gt;./src/twisted/plugins/feed_aggregation_plugin.py</title>
<path fill="none" stroke="black" d="M109.84,-71.6966C109.84,-63.9827 109.84,-54.7125 109.84,-46.1124"/>
<polygon fill="black" stroke="black" points="113.34,-46.1043 109.84,-36.1043 106.34,-46.1044 113.34,-46.1043"/>
</g>
<!-- ./src/feed_aggregation/test/__init__.py -->
<g id="node11" class="node"><title>./src/feed_aggregation/test/__init__.py</title>
<ellipse fill="none" stroke="black" cx="367.84" cy="-18" rx="51.1914" ry="18"/>
<text text-anchor="middle" x="367.84" y="-14.3" font-family="Times,serif" font-size="14.00">__init__.py</text>
</g>
<!-- ./src/feed_aggregation/test&#45;&gt;./src/feed_aggregation/test/__init__.py -->
<g id="edge10" class="edge"><title>./src/feed_aggregation/test&#45;&gt;./src/feed_aggregation/test/__init__.py</title>
<path fill="none" stroke="black" d="M420.958,-74.496C412.137,-65.2798 400.513,-53.1362 390.39,-42.559"/>
<polygon fill="black" stroke="black" points="392.787,-40.0023 383.344,-35.1982 387.73,-44.8425 392.787,-40.0023"/>
</g>
<!-- ./src/feed_aggregation/test/test_service.py -->
<g id="node12" class="node"><title>./src/feed_aggregation/test/test_service.py</title>
<ellipse fill="none" stroke="black" cx="500.84" cy="-18" rx="63.8893" ry="18"/>
<text text-anchor="middle" x="500.84" y="-14.3" font-family="Times,serif" font-size="14.00">test_service.py</text>
</g>
<!-- ./src/feed_aggregation/test&#45;&gt;./src/feed_aggregation/test/test_service.py -->
<g id="edge11" class="edge"><title>./src/feed_aggregation/test&#45;&gt;./src/feed_aggregation/test/test_service.py</title>
<path fill="none" stroke="black" d="M448.837,-74.1548C457.28,-65.2002 468.24,-53.5756 477.921,-43.3088"/>
<polygon fill="black" stroke="black" points="480.697,-45.466 485.011,-35.789 475.604,-40.6639 480.697,-45.466"/>
</g>
</g>
</svg>
